<?xml version="1.0" encoding="utf-8"?>
<!-- Generated by IcoMoon.io -->
<!DOCTYPE svg PUBLIC "-//W3C//DTD SVG 1.1//EN" "http://www.w3.org/Graphics/SVG/1.1/DTD/svg11.dtd">
<svg version="1.1" xmlns="http://www.w3.org/2000/svg" xmlns:xlink="http://www.w3.org/1999/xlink" width="32" height="32" viewBox="0 0 32 32">
<path fill="#387ef5" d="M27.72 17.050c0.238-0.153 0.377-0.336 0.377-0.534 0-0.53-0.998-0.96-2.229-0.96-0.459 0-0.885 0.060-1.24 0.162-2.402-0.762-5.369-1.212-8.58-1.212-8 0-14.486 2.794-14.486 6.241s6.486 6.241 14.486 6.241c8 0 14.486-2.794 14.486-6.241 0-1.383-1.046-2.662-2.814-3.696zM25.508 24.821c-1.229 0.529-2.66 0.945-4.253 1.235-1.649 0.3-3.4 0.453-5.207 0.453s-3.559-0.152-5.207-0.453c-1.593-0.29-3.024-0.706-4.253-1.235s-2.194-1.146-2.868-1.832c-0.697-0.71-1.051-1.465-1.051-2.243s0.354-1.533 1.051-2.243c0.674-0.686 1.639-1.303 2.868-1.832s2.66-0.945 4.253-1.235c1.649-0.3 3.401-0.453 5.207-0.453s3.558 0.152 5.207 0.453c0.936 0.171 1.816 0.385 2.633 0.64-0.158 0.132-0.248 0.282-0.248 0.44 0 0.53 0.998 0.96 2.229 0.96 0.369 0 0.716-0.039 1.022-0.107 0.592 0.352 1.089 0.731 1.485 1.134 0.697 0.71 1.051 1.465 1.051 2.243s-0.354 1.533-1.051 2.243c-0.674 0.686-1.639 1.303-2.868 1.832z"></path>
<path fill="#387ef5" d="M20.145 20.746c0 1.061-1.834 1.921-4.097 1.921s-4.097-0.86-4.097-1.921c0-1.061 1.834-1.921 4.097-1.921s4.097 0.86 4.097 1.921z"></path>
<path fill="#387ef5" d="M16.012 2.934c-3.007 0-5.443 2.45-5.443 5.475 0 5.228 5.443 12.044 5.443 12.044s5.443-6.816 5.443-12.044c0-3.025-2.436-5.475-5.443-5.475zM16.012 11.064c-1.423 0-2.573-1.159-2.573-2.587s1.154-2.591 2.573-2.591c1.423 0 2.573 1.159 2.573 2.591 0 1.428-1.15 2.587-2.573 2.587z"></path>
</svg>
