<?xml version="1.0" encoding="UTF-8" standalone="no"?>
<!-- Generated by IcoMoon.io -->

<svg
   xmlns:dc="http://purl.org/dc/elements/1.1/"
   xmlns:cc="http://creativecommons.org/ns#"
   xmlns:rdf="http://www.w3.org/1999/02/22-rdf-syntax-ns#"
   xmlns:svg="http://www.w3.org/2000/svg"
   xmlns="http://www.w3.org/2000/svg"
   xmlns:sodipodi="http://sodipodi.sourceforge.net/DTD/sodipodi-0.dtd"
   xmlns:inkscape="http://www.inkscape.org/namespaces/inkscape"
   version="1.1"
   width="32"
   height="32"
   viewBox="0 0 32 32"
   id="svg2"
   inkscape:version="0.91 r"
   sodipodi:docname="icon.svg"
   inkscape:export-filename="/home/tomasz/dev/js/ionic2-geofence/icon.png"
   inkscape:export-xdpi="540"
   inkscape:export-ydpi="540">
  <metadata
     id="metadata14">
    <rdf:RDF>
      <cc:Work
         rdf:about="">
        <dc:format>image/svg+xml</dc:format>
        <dc:type
           rdf:resource="http://purl.org/dc/dcmitype/StillImage" />
        <dc:title></dc:title>
      </cc:Work>
    </rdf:RDF>
  </metadata>
  <defs
     id="defs12" />
  <sodipodi:namedview
     pagecolor="#ffffff"
     bordercolor="#666666"
     borderopacity="1"
     objecttolerance="10"
     gridtolerance="10"
     guidetolerance="10"
     inkscape:pageopacity="0"
     inkscape:pageshadow="2"
     inkscape:window-width="1301"
     inkscape:window-height="744"
     id="namedview10"
     showgrid="false"
     inkscape:zoom="14.75"
     inkscape:cx="7.3078631"
     inkscape:cy="16.303515"
     inkscape:window-x="65"
     inkscape:window-y="24"
     inkscape:window-maximized="1"
     inkscape:current-layer="svg2" />
  <path
     d="m 28.751322,18.168127 c 0.259721,-0.182755 0.411406,-0.401344 0.411406,-0.637851 0,-0.633073 -1.08908,-1.146699 -2.432425,-1.146699 -0.500889,0 -0.965767,0.07167 -1.353166,0.193506 -2.621213,-0.910192 -5.85899,-1.447707 -9.363035,-1.447707 -8.7301032,0 -15.8080342,3.337371 -15.8080342,7.454736 0,0.848062 0.30027767,1.663033 0.8534215,2.422566 2.1323837,2.928022 8.0226671,5.032169 14.9546127,5.032169 8.730103,0 15.808034,-3.337371 15.808034,-7.454735 0,-1.651963 -1.141461,-3.1797 -3.070814,-4.41479 z m -2.413873,9.282286 c -1.341162,0.631879 -2.90276,1.128782 -4.641141,1.47518 -1.799493,0.358343 -3.710294,0.541098 -5.682206,0.541098 -1.971912,0 -3.883805,-0.181559 -5.682206,-0.541098 C 8.5935142,28.579195 7.031917,28.082292 5.690755,27.450413 4.3495929,26.818534 3.2965242,26.081542 2.5610131,25.262131 1.8004029,24.414051 1.4140958,23.512221 1.4140958,22.582917 c 0,-0.929304 0.3863071,-1.831135 1.1469173,-2.679213 0.7355111,-0.819413 1.7885798,-1.556405 3.1297419,-2.188284 1.341162,-0.631879 2.9027592,-1.128781 4.641141,-1.47518 1.799493,-0.358343 3.711385,-0.541098 5.682206,-0.541098 1.970821,0 3.882713,0.181561 5.682206,0.541098 1.021422,0.204256 1.981733,0.459875 2.873295,0.764466 -0.17242,0.157671 -0.270633,0.336842 -0.270633,0.52557 0,0.633074 1.08908,1.146699 2.432425,1.146699 0.402676,0 0.781344,-0.04659 1.11527,-0.127809 0.646028,0.420456 1.188385,0.873163 1.620526,1.354538 0.76061,0.848078 1.146917,1.749909 1.146917,2.679213 0,0.929304 -0.386307,1.831134 -1.146917,2.679214 -0.735512,0.819411 -1.78858,1.556403 -3.129742,2.188282 z"
     id="path4"
     inkscape:connector-curvature="0"
     style="fill:#387ef5"
     sodipodi:nodetypes="csscsssssccscscscscscsccssccscs" />
  <path
     d="m 20.485006,22.582917 c 0,1.26734 -2.001376,2.294592 -4.470904,2.294592 -2.469528,0 -4.470904,-1.027252 -4.470904,-2.294592 0,-1.267341 2.001376,-2.294592 4.470904,-2.294592 2.469528,0 4.470904,1.027251 4.470904,2.294592 z"
     id="path6"
     inkscape:connector-curvature="0"
     style="fill:#387ef5" />
  <path
     d="m 15.974816,1.3068813 c -3.281427,0 -5.939743,2.9264703 -5.939743,6.5397653 0,6.2447284 5.939743,14.3862884 5.939743,14.3862884 0,0 5.939744,-8.14156 5.939744,-14.3862884 0,-3.613295 -2.658316,-6.5397653 -5.939744,-6.5397653 z m 0,9.7111037 c -1.552867,0 -2.807819,-1.3843995 -2.807819,-3.0901139 0,-1.7057141 1.259317,-3.0948916 2.807819,-3.0948916 1.552867,0 2.80782,1.3843995 2.80782,3.0948916 0,1.7057144 -1.254953,3.0901139 -2.80782,3.0901139 z"
     id="path8"
     inkscape:connector-curvature="0"
     style="fill:#387ef5" />
  <text
     xml:space="preserve"
     style="font-style:normal;font-weight:normal;font-size:5px;line-height:125%;font-family:sans-serif;letter-spacing:0px;word-spacing:0px;fill:#000000;fill-opacity:1;stroke:none;stroke-width:1px;stroke-linecap:butt;stroke-linejoin:miter;stroke-opacity:1"
     x="27.254236"
     y="8.4067793"
     id="text3342"
     sodipodi:linespacing="125%"><tspan
       sodipodi:role="line"
       id="tspan3344"
       x="27.254236"
       y="8.4067793" /></text>
</svg>
