<?xml version="1.0" encoding="UTF-8" standalone="no"?>
<!-- Generated by IcoMoon.io -->

<svg
   xmlns:dc="http://purl.org/dc/elements/1.1/"
   xmlns:cc="http://creativecommons.org/ns#"
   xmlns:rdf="http://www.w3.org/1999/02/22-rdf-syntax-ns#"
   xmlns:svg="http://www.w3.org/2000/svg"
   xmlns="http://www.w3.org/2000/svg"
   xmlns:sodipodi="http://sodipodi.sourceforge.net/DTD/sodipodi-0.dtd"
   xmlns:inkscape="http://www.inkscape.org/namespaces/inkscape"
   version="1.1"
   width="32"
   height="32"
   viewBox="0 0 32 32"
   id="svg2"
   inkscape:version="0.91 r"
   sodipodi:docname="icon-text.svg"
   inkscape:export-filename="/home/tomasz/dev/js/ionic2-geofence/icon.png"
   inkscape:export-xdpi="1125"
   inkscape:export-ydpi="1125">
  <metadata
     id="metadata14">
    <rdf:RDF>
      <cc:Work
         rdf:about="">
        <dc:format>image/svg+xml</dc:format>
        <dc:type
           rdf:resource="http://purl.org/dc/dcmitype/StillImage" />
        <dc:title></dc:title>
      </cc:Work>
    </rdf:RDF>
  </metadata>
  <defs
     id="defs12" />
  <sodipodi:namedview
     pagecolor="#ffffff"
     bordercolor="#666666"
     borderopacity="1"
     objecttolerance="10"
     gridtolerance="10"
     guidetolerance="10"
     inkscape:pageopacity="0"
     inkscape:pageshadow="2"
     inkscape:window-width="1301"
     inkscape:window-height="744"
     id="namedview10"
     showgrid="false"
     inkscape:zoom="14.75"
     inkscape:cx="13.384799"
     inkscape:cy="15.132499"
     inkscape:window-x="65"
     inkscape:window-y="24"
     inkscape:window-maximized="1"
     inkscape:current-layer="svg2" />
  <path
     d="m 25.638088,14.144781 c 0.198793,-0.139881 0.314893,-0.307192 0.314893,-0.488214 0,-0.484559 -0.833589,-0.877691 -1.861792,-0.877691 -0.383384,0 -0.739204,0.05485 -1.035721,0.148111 -2.006291,-0.696667 -4.484505,-1.108083 -7.166522,-1.108083 -6.6820734,0 -12.0995628,2.554443 -12.0995628,5.705898 0,0.649112 0.2298343,1.272895 0.6532138,1.854246 1.6321389,2.241126 6.140597,3.851653 11.446349,3.851653 6.682072,0 12.099562,-2.554445 12.099562,-5.705899 0,-1.264422 -0.873681,-2.433761 -2.35042,-3.379105 z m -1.847592,7.104716 c -1.026533,0.483644 -2.221789,0.863976 -3.552356,1.129111 -1.377342,0.274279 -2.839881,0.414161 -4.349194,0.414161 -1.509314,0 -2.972687,-0.138967 -4.349194,-0.414161 C 10.209183,22.113473 9.0139284,21.733141 7.9873949,21.249497 6.9608615,20.765853 6.1548365,20.201755 5.5918721,19.574574 5.0096965,18.925448 4.7140149,18.235182 4.7140149,17.523888 c 0,-0.711296 0.2956816,-1.401561 0.8778572,-2.050686 0.5629644,-0.627185 1.3689894,-1.191282 2.3955228,-1.674926 1.0265335,-0.483643 2.2217881,-0.863975 3.5523571,-1.129112 1.377343,-0.274276 2.840716,-0.414158 4.349194,-0.414158 1.508478,0 2.971852,0.138968 4.349194,0.414158 0.781803,0.156339 1.51683,0.351992 2.199237,0.585128 -0.131972,0.120682 -0.207144,0.257821 -0.207144,0.402275 0,0.484558 0.833587,0.877689 1.861793,0.877689 0.308209,0 0.598044,-0.03566 0.853633,-0.09783 0.494474,0.321819 0.909597,0.668323 1.24036,1.036771 0.582175,0.649125 0.877857,1.33939 0.877857,2.050686 0,0.711293 -0.295682,1.40156 -0.877857,2.050686 -0.562966,0.627181 -1.368988,1.191279 -2.395523,1.674923 z"
     id="path4"
     inkscape:connector-curvature="0"
     style="fill:#387ef5"
     sodipodi:nodetypes="csscsssssccscscscscscsccssccscs" />
  <path
     d="m 19.311001,17.523888 c 0,0.970029 -1.531864,1.756293 -3.422055,1.756293 -1.890191,0 -3.422056,-0.786264 -3.422056,-1.756293 0,-0.970031 1.531865,-1.756295 3.422056,-1.756295 1.890191,0 3.422055,0.786264 3.422055,1.756295 z"
     id="path6"
     inkscape:connector-curvature="0"
     style="fill:#387ef5" />
  <path
     d="m 15.858876,1.2390847 c -2.511623,0 -4.546315,2.2399375 -4.546315,5.0055747 0,4.7797516 4.546315,11.0113496 4.546315,11.0113496 0,0 4.546316,-6.231598 4.546316,-11.0113496 0,-2.7656372 -2.034691,-5.0055747 -4.546316,-5.0055747 z m 0,7.4329362 c -1.188573,0 -2.149121,-1.0596275 -2.149121,-2.3651922 0,-1.3055632 0.963889,-2.3688478 2.149121,-2.3688478 1.188574,0 2.149122,1.0596276 2.149122,2.3688478 0,1.3055647 -0.960548,2.3651922 -2.149122,2.3651922 z"
     id="path8"
     inkscape:connector-curvature="0"
     style="fill:#387ef5" />
  <text
     xml:space="preserve"
     style="font-style:normal;font-weight:normal;font-size:5px;line-height:125%;font-family:sans-serif;letter-spacing:0px;word-spacing:0px;fill:#000000;fill-opacity:1;stroke:none;stroke-width:1px;stroke-linecap:butt;stroke-linejoin:miter;stroke-opacity:1"
     x="27.254236"
     y="8.4067793"
     id="text3342"
     sodipodi:linespacing="125%"><tspan
       sodipodi:role="line"
       id="tspan3344"
       x="27.254236"
       y="8.4067793" /></text>
  <text
     xml:space="preserve"
     style="font-style:normal;font-weight:normal;font-size:4.47544813px;line-height:95.99999785%;font-family:sans-serif;letter-spacing:0px;word-spacing:0px;baseline-shift:baseline;fill:#387ef5;fill-opacity:1;stroke:none;stroke-width:1px;stroke-linecap:butt;stroke-linejoin:miter;stroke-opacity:1"
     x="0.9558453"
     y="29.616844"
     id="text3382"
     sodipodi:linespacing="95.999998%"><tspan
       sodipodi:role="line"
       id="tspan3384"
       x="0.9558453"
       y="29.616844"><tspan
         style="font-style:normal;font-variant:normal;font-weight:normal;font-stretch:normal;line-height:95.99999785%;font-family:sans-serif;-inkscape-font-specification:sans-serif;letter-spacing:-0.36997038px;fill:#387ef5;fill-opacity:1"
         id="tspan3404">ionic</tspan><tspan
         style="font-style:normal;font-variant:normal;font-weight:bold;font-stretch:normal;font-family:sans-serif;-inkscape-font-specification:'sans-serif Bold';letter-spacing:-0.26255965px;fill:#387ef5;fill-opacity:1"
         id="tspan3406">Geofence</tspan></tspan></text>
  <flowRoot
     xml:space="preserve"
     id="flowRoot3394"
     style="fill:black;stroke:none;stroke-opacity:1;stroke-width:1px;stroke-linejoin:miter;stroke-linecap:butt;fill-opacity:1;font-family:sans-serif;font-style:normal;font-weight:normal;font-size:3.75px;line-height:125%;letter-spacing:0px;word-spacing:0px"><flowRegion
       id="flowRegion3396"><rect
         id="rect3398"
         width="31.932203"
         height="6.7118645"
         x="3.6610169"
         y="19.322035" /></flowRegion><flowPara
       id="flowPara3400" /></flowRoot></svg>
